<?xml version="1.0" encoding="utf-8"?>
<!-- Generator: Adobe Illustrator 18.1.0, SVG Export Plug-In . SVG Version: 6.00 Build 0)  -->
<!DOCTYPE svg PUBLIC "-//W3C//DTD SVG 1.1//EN" "http://www.w3.org/Graphics/SVG/1.1/DTD/svg11.dtd">
<svg version="1.1" id="Layer_1" xmlns="http://www.w3.org/2000/svg" xmlns:xlink="http://www.w3.org/1999/xlink" x="0px" y="0px"
	 viewBox="0 0 22.2 21.8" enable-background="new 0 0 22.2 21.8" xml:space="preserve">
<path fill="#D74D27" d="M11.1,21.8C5,21.8,0,16.9,0,10.9S5,0,11.1,0s11.1,4.9,11.1,10.9S17.2,21.8,11.1,21.8z M11.1,1
	C5.5,1,1,5.4,1,10.9c0,5.5,4.5,9.9,10.1,9.9s10.1-4.4,10.1-9.9C21.2,5.4,16.7,1,11.1,1z"/>
<polygon fill="#D74D27" points="11.9,11.1 16.2,15.2 15.5,15.9 11.1,11.8 6.7,15.9 6,15.2 10.4,11.1 6,7.1 6.7,6.3 11.1,10.4 
	15.5,6.3 16.2,7.1 "/>
</svg>
