<?xml version="1.0" encoding="utf-8"?>
<!-- Generator: Adobe Illustrator 17.1.0, SVG Export Plug-In . SVG Version: 6.00 Build 0)  -->
<!DOCTYPE svg PUBLIC "-//W3C//DTD SVG 1.1//EN" "http://www.w3.org/Graphics/SVG/1.1/DTD/svg11.dtd">
<svg version="1.1" id="Layer_1" xmlns="http://www.w3.org/2000/svg" xmlns:xlink="http://www.w3.org/1999/xlink" x="0px" y="0px"
	 viewBox="0 0 162 162" enable-background="new 0 0 162 162" xml:space="preserve">
<circle fill="#00B2EF" cx="81" cy="81" r="77.333"/>
<rect x="43.546" y="70.062" transform="matrix(0.684 0.7295 -0.7295 0.684 80.3847 -41.4404)" fill="#008ABF" width="88.955" height="4"/>
<rect x="89.383" y="77.295" transform="matrix(0.1412 0.99 -0.99 0.1412 177.1334 -45.6009)" fill="#008ABF" width="50.935" height="4"/>
<rect x="29.652" y="89.534" transform="matrix(0.9582 0.2861 -0.2861 0.9582 29.3234 -17.6306)" fill="#008ABF" width="90.69" height="4"/>
<rect x="92.524" y="87.32" transform="matrix(0.3191 0.9477 -0.9477 0.3191 171.0408 -12.9376)" fill="#008ABF" width="4" height="50.483"/>
<g>
	<circle fill="#FFFFFF" cx="111.254" cy="54.083" r="15.656"/>
</g>
<g>
	<circle fill="#FFFFFF" cx="31.547" cy="78.561" r="15.656"/>
</g>
<circle fill="#00649D" cx="118.446" cy="104.508" r="20.508"/>
<g>
	<circle fill="#FFFFFF" cx="70.602" cy="120.616" r="7.601"/>
</g>
<g>
	<circle fill="#FFFFFF" cx="57.602" cy="39.616" r="7.601"/>
</g>
</svg>
